<svg id="Layer_1" data-name="Layer 1" xmlns="http://www.w3.org/2000/svg" viewBox="0 0 202.9 202.9"><defs><style>.cls-1{fill:#fff;}.cls-2{fill:#606;}</style></defs><path class="cls-1" d="M.1,20V51H.7c84.4,0,153.2,68,153.9,151.8h30.1C183.9,102.1,101.5,20.3.1,20Zm0,64v31H.7c48.9,0,88.8,39.3,89.5,87.8h30.1C119.6,137.4,66,84.3.1,84Zm202.8,38.6V60.1c-7.7-10.5-17.2-22.5-26.7-31.8-10.6-10.5-23-20-35-28.3H74.8A218.43,218.43,0,0,1,202.9,122.6Z"/><path class="cls-2" d="M.6,115H0v77.6a10.24,10.24,0,0,0,10.2,10.2H90.1C89.4,154.3,49.6,115,.6,115Zm0-64H0V84c65.9.3,119.5,53.3,120.2,118.8h34.2C153.8,119,85.1,51,.6,51ZM202.9,192.7V122.6A218.54,218.54,0,0,0,74.9,0H10.2A10.24,10.24,0,0,0,0,10.2v9.9c101.4.3,183.9,82,184.5,182.8h8.2a10.24,10.24,0,0,0,10.2-10.2ZM176.2,28.3a286.4,286.4,0,0,1,26.7,31.8v-50a10.07,10.07,0,0,0-10-10.1H141.3C153.3,8.3,165.7,17.8,176.2,28.3Z"/></svg>